<?xml version="1.0" encoding="UTF-8" standalone="no"?>
<!-- Created with Inkscape (http://www.inkscape.org/) -->

<svg
   xmlns:dc="http://purl.org/dc/elements/1.1/"
   xmlns:cc="http://creativecommons.org/ns#"
   xmlns:rdf="http://www.w3.org/1999/02/22-rdf-syntax-ns#"
   xmlns:svg="http://www.w3.org/2000/svg"
   xmlns="http://www.w3.org/2000/svg"
   version="1.1"
   width="86.029999"
   height="86.029999"
   id="svg2">
  <defs
     id="defs4" />
  <metadata
     id="metadata7">
    <rdf:RDF>
      <cc:Work
         rdf:about="">
        <dc:format>image/svg+xml</dc:format>
        <dc:type
           rdf:resource="http://purl.org/dc/dcmitype/StillImage" />
        <dc:title></dc:title>
      </cc:Work>
    </rdf:RDF>
  </metadata>
  <g
     transform="translate(-60.953075,-909.33945)"
     id="layer1">
    <g
       transform="translate(40.655574,889.18171)"
       id="g3840">
      <path
         d="m 64.86866,20.660603 c -5.66703,0.0152 -11.75752,3.308828 -14.91093,8.062381 -2.2333,3.366552 -2.91803,7.014741 -2.80898,14.994376 0.0564,4.130228 0.23959,5.081258 1.25284,6.452515 0.65332,0.884158 1.18689,1.842275 1.18689,2.133258 0,0.290982 0.4502,0.953727 0.99787,1.473485 0.54767,0.519748 1.17007,2.017835 1.38471,3.325234 0.21464,1.307399 0.71741,2.844527 1.11657,3.417602 0.39915,0.573083 0.72532,1.917488 0.72532,2.98656 0,1.698532 -0.20588,2.017346 -1.63528,2.515921 -0.89967,0.313806 -2.50479,1.506212 -3.56508,2.652276 -2.22451,2.404427 -6.72755,4.048197 -16.95063,6.179837 -3.32779,0.69389 -6.32598,1.55793 -6.65977,1.92211 -0.50137,0.54695 -1.22738,2.50512 -1.87269,4.8823 7.36419,13.7207 21.53295,23.241892 37.98945,24.042012 l 2.25071,0 2.2507,0 c 16.37047,-0.79591 30.47883,-10.221372 37.87514,-23.826452 -0.53073,-1.25908 -1.50448,-2.34766 -2.91885,-3.24611 -1.25783,-0.79899 -2.44816,-1.45584 -2.64193,-1.45584 -0.19382,0 -3.01127,-1.0434 -6.26418,-2.32242 -3.25291,-1.27902 -6.50976,-2.46168 -7.2357,-2.62588 -0.72588,-0.16418 -2.15313,-1.36674 -3.16945,-2.674264 -1.01623,-1.307519 -2.263,-2.518222 -2.76941,-2.691858 -2.71764,-0.931841 -3.37133,-5.096532 -1.46386,-9.302754 0.57441,-1.266494 1.04867,-2.733786 1.05503,-3.259256 0.007,-0.525469 0.70488,-1.830524 1.55179,-2.902989 2.25214,-2.852069 3.58955,-8.986766 2.15396,-9.874566 -0.29596,-0.182991 -0.52708,-2.691026 -0.52751,-5.709171 -4.3e-4,-4.081146 -0.22336,-5.822773 -0.9231,-7.195876 -1.39192,-2.731329 -4.25915,-4.756414 -7.4467,-5.260607 -1.60213,-0.253402 -3.25414,-0.90577 -3.95632,-1.565843 -0.92985,-0.874074 -1.85623,-1.131917 -4.07061,-1.125981 z"
         id="path5267"
         style="fill:#4d4d4d;fill-opacity:1;stroke:#5b5b5b;stroke-width:1.00000072;stroke-linecap:butt;stroke-linejoin:round;stroke-miterlimit:4;stroke-opacity:1;stroke-dasharray:none" />
    </g>
  </g>
</svg>
